<svg width="28" height="29" viewBox="0 0 28 29" fill="none" xmlns="http://www.w3.org/2000/svg">
<path d="M14.0013 14.2699C12.718 14.2699 11.6194 13.8129 10.7055 12.899C9.79158 11.9851 9.33464 10.8865 9.33464 9.60319C9.33464 8.31986 9.79158 7.22125 10.7055 6.30736C11.6194 5.39347 12.718 4.93652 14.0013 4.93652C15.2846 4.93652 16.3832 5.39347 17.2971 6.30736C18.211 7.22125 18.668 8.31986 18.668 9.60319C18.668 10.8865 18.211 11.9851 17.2971 12.899C16.3832 13.8129 15.2846 14.2699 14.0013 14.2699ZM4.66797 23.6032V20.3365C4.66797 19.6754 4.83811 19.0678 5.17839 18.5136C5.51866 17.9594 5.97075 17.5365 6.53464 17.2449C7.74019 16.6421 8.96519 16.19 10.2096 15.8886C11.4541 15.5872 12.718 15.4365 14.0013 15.4365C15.2846 15.4365 16.5485 15.5872 17.793 15.8886C19.0374 16.19 20.2624 16.6421 21.468 17.2449C22.0319 17.5365 22.4839 17.9594 22.8242 18.5136C23.1645 19.0678 23.3346 19.6754 23.3346 20.3365V23.6032H4.66797ZM7.0013 21.2699H21.0013V20.3365C21.0013 20.1226 20.9478 19.9282 20.8409 19.7532C20.7339 19.5782 20.593 19.4421 20.418 19.3449C19.368 18.8199 18.3082 18.4261 17.2388 18.1636C16.1694 17.9011 15.0902 17.7699 14.0013 17.7699C12.9124 17.7699 11.8332 17.9011 10.7638 18.1636C9.69436 18.4261 8.63464 18.8199 7.58464 19.3449C7.40964 19.4421 7.26866 19.5782 7.16172 19.7532C7.05477 19.9282 7.0013 20.1226 7.0013 20.3365V21.2699ZM14.0013 11.9365C14.643 11.9365 15.1923 11.7081 15.6492 11.2511C16.1062 10.7942 16.3346 10.2449 16.3346 9.60319C16.3346 8.96152 16.1062 8.41222 15.6492 7.95527C15.1923 7.49833 14.643 7.26986 14.0013 7.26986C13.3596 7.26986 12.8103 7.49833 12.3534 7.95527C11.8964 8.41222 11.668 8.96152 11.668 9.60319C11.668 10.2449 11.8964 10.7942 12.3534 11.2511C12.8103 11.7081 13.3596 11.9365 14.0013 11.9365Z" fill="#5FABC5"/>
</svg>
