<svg width="64" height="64" viewBox="0 0 64 64" fill="none" xmlns="http://www.w3.org/2000/svg">
<path d="M29.3333 10.6667V0H34.6667V10.6667H29.3333ZM17.5333 14.4667L9.53333 6.46667L13.3333 2.66667L21.3333 10.6667L17.5333 14.4667ZM10.6667 61.3333C9.91111 61.3333 9.27778 61.0778 8.76667 60.5667C8.25556 60.0556 8 59.4222 8 58.6667V37.3333L13.6 21.3333C13.8667 20.5333 14.3444 19.8889 15.0333 19.4C15.7222 18.9111 16.4889 18.6667 17.3333 18.6667H24V13.3333H32.7333C31.6667 14.8444 30.8333 16.5 30.2333 18.3C29.6333 20.1 29.3333 22 29.3333 24H18.2667L14.3333 34.6667H32.7333C33.4889 35.7333 34.3333 36.7222 35.2667 37.6333C36.2 38.5444 37.2444 39.3333 38.4 40H13.3333V50.6667H50.6667V42.4667C51.6 42.3333 52.5111 42.1333 53.4 41.8667C54.2889 41.6 55.1556 41.2667 56 40.8667V58.6667C56 59.4222 55.7444 60.0556 55.2333 60.5667C54.7222 61.0778 54.0889 61.3333 53.3333 61.3333H50.6667C49.9111 61.3333 49.2778 61.0778 48.7667 60.5667C48.2556 60.0556 48 59.4222 48 58.6667V56H16V58.6667C16 59.4222 15.7444 60.0556 15.2333 60.5667C14.7222 61.0778 14.0889 61.3333 13.3333 61.3333H10.6667ZM16 48H24C24.7556 48 25.3889 47.7444 25.9 47.2333C26.4111 46.7222 26.6667 46.0889 26.6667 45.3333C26.6667 44.5778 26.4111 43.9444 25.9 43.4333C25.3889 42.9222 24.7556 42.6667 24 42.6667H16V48ZM48 48V42.6667H40C39.2444 42.6667 38.6111 42.9222 38.1 43.4333C37.5889 43.9444 37.3333 44.5778 37.3333 45.3333C37.3333 46.0889 37.5889 46.7222 38.1 47.2333C38.6111 47.7444 39.2444 48 40 48H48ZM46.0667 30L55.3333 20.8L52.5333 18L46.0667 24.3333L43.4667 21.7333L40.6667 24.6L46.0667 30ZM48 10.6667C51.6889 10.6667 54.8333 11.9667 57.4333 14.5667C60.0333 17.1667 61.3333 20.3111 61.3333 24C61.3333 27.6889 60.0333 30.8333 57.4333 33.4333C54.8333 36.0333 51.6889 37.3333 48 37.3333C44.3111 37.3333 41.1667 36.0333 38.5667 33.4333C35.9667 30.8333 34.6667 27.6889 34.6667 24C34.6667 20.3111 35.9667 17.1667 38.5667 14.5667C41.1667 11.9667 44.3111 10.6667 48 10.6667Z" fill="#2EB6FF"/>
</svg>
