<svg width="64" height="64" viewBox="0 0 64 64" fill="none" xmlns="http://www.w3.org/2000/svg">
<path d="M16 58.6666C13.7778 58.6666 11.8889 57.8888 10.3333 56.3332C8.77778 54.7777 8 52.8888 8 50.6666V42.6666H16V5.33325L20 9.33325L24 5.33325L28 9.33325L32 5.33325L36 9.33325L40 5.33325L44 9.33325L48 5.33325L52 9.33325L56 5.33325V50.6666C56 52.8888 55.2222 54.7777 53.6667 56.3332C52.1111 57.8888 50.2222 58.6666 48 58.6666H16ZM48 53.3332C48.7556 53.3332 49.3889 53.0777 49.9 52.5666C50.4111 52.0555 50.6667 51.4221 50.6667 50.6666V13.3333H21.3333V42.6666H45.3333V50.6666C45.3333 51.4221 45.5889 52.0555 46.1 52.5666C46.6111 53.0777 47.2444 53.3332 48 53.3332ZM24 23.9999V18.6666H40V23.9999H24ZM24 31.9999V26.6666H40V31.9999H24ZM45.3333 23.9999C44.5778 23.9999 43.9444 23.7444 43.4333 23.2333C42.9222 22.7221 42.6667 22.0888 42.6667 21.3333C42.6667 20.5777 42.9222 19.9444 43.4333 19.4333C43.9444 18.9221 44.5778 18.6666 45.3333 18.6666C46.0889 18.6666 46.7222 18.9221 47.2333 19.4333C47.7444 19.9444 48 20.5777 48 21.3333C48 22.0888 47.7444 22.7221 47.2333 23.2333C46.7222 23.7444 46.0889 23.9999 45.3333 23.9999ZM45.3333 31.9999C44.5778 31.9999 43.9444 31.7444 43.4333 31.2332C42.9222 30.7221 42.6667 30.0888 42.6667 29.3333C42.6667 28.5777 42.9222 27.9444 43.4333 27.4333C43.9444 26.9221 44.5778 26.6666 45.3333 26.6666C46.0889 26.6666 46.7222 26.9221 47.2333 27.4333C47.7444 27.9444 48 28.5777 48 29.3333C48 30.0888 47.7444 30.7221 47.2333 31.2332C46.7222 31.7444 46.0889 31.9999 45.3333 31.9999ZM16 53.3332H40V47.9999H13.3333V50.6666C13.3333 51.4221 13.5889 52.0555 14.1 52.5666C14.6111 53.0777 15.2444 53.3332 16 53.3332Z" fill="#2EB6FF"/>
</svg>
