<svg width="29" height="29" viewBox="0 0 29 29" fill="none" xmlns="http://www.w3.org/2000/svg">
<path d="M17.6667 13.9781C17.2583 13.9781 16.9132 13.8371 16.6313 13.5552C16.3493 13.2732 16.2083 12.9281 16.2083 12.5198C16.2083 12.1114 16.3493 11.7663 16.6313 11.4844C16.9132 11.2024 17.2583 11.0614 17.6667 11.0614C18.075 11.0614 18.4201 11.2024 18.7021 11.4844C18.984 11.7663 19.125 12.1114 19.125 12.5198C19.125 12.9281 18.984 13.2732 18.7021 13.5552C18.4201 13.8371 18.075 13.9781 17.6667 13.9781ZM11.8333 13.9781C11.425 13.9781 11.0799 13.8371 10.7979 13.5552C10.516 13.2732 10.375 12.9281 10.375 12.5198C10.375 12.1114 10.516 11.7663 10.7979 11.4844C11.0799 11.2024 11.425 11.0614 11.8333 11.0614C12.2417 11.0614 12.5868 11.2024 12.8687 11.4844C13.1507 11.7663 13.2917 12.1114 13.2917 12.5198C13.2917 12.9281 13.1507 13.2732 12.8687 13.5552C12.5868 13.8371 12.2417 13.9781 11.8333 13.9781ZM14.75 20.1031C13.5833 20.1031 12.5285 19.7823 11.5854 19.1406C10.6424 18.4989 9.94722 17.6531 9.5 16.6031H20C19.5528 17.6531 18.8576 18.4989 17.9146 19.1406C16.9715 19.7823 15.9167 20.1031 14.75 20.1031ZM14.75 24.7698C13.2917 24.7698 11.9257 24.4927 10.6521 23.9385C9.37847 23.3844 8.27014 22.6357 7.32708 21.6927C6.38403 20.7496 5.63542 19.6413 5.08125 18.3677C4.52708 17.0941 4.25 15.7281 4.25 14.2698C4.25 12.8114 4.52708 11.4455 5.08125 10.1719C5.63542 8.89825 6.38403 7.78991 7.32708 6.84686C8.27014 5.9038 9.37847 5.15519 10.6521 4.60103C11.9257 4.04686 13.2917 3.76978 14.75 3.76978C16.2083 3.76978 17.5743 4.04686 18.8479 4.60103C20.1215 5.15519 21.2299 5.9038 22.1729 6.84686C23.116 7.78991 23.8646 8.89825 24.4188 10.1719C24.9729 11.4455 25.25 12.8114 25.25 14.2698C25.25 15.7281 24.9729 17.0941 24.4188 18.3677C23.8646 19.6413 23.116 20.7496 22.1729 21.6927C21.2299 22.6357 20.1215 23.3844 18.8479 23.9385C17.5743 24.4927 16.2083 24.7698 14.75 24.7698ZM14.75 22.4364C17.0056 22.4364 18.9306 21.6392 20.525 20.0448C22.1194 18.4503 22.9167 16.5253 22.9167 14.2698C22.9167 12.0142 22.1194 10.0892 20.525 8.49478C18.9306 6.90033 17.0056 6.10311 14.75 6.10311H14.4C14.2833 6.10311 14.1667 6.12255 14.05 6.16144C13.9333 6.27811 13.8556 6.4045 13.8167 6.54061C13.7778 6.67672 13.7583 6.82255 13.7583 6.97811C13.7583 7.38644 13.8993 7.73158 14.1812 8.01353C14.4632 8.29547 14.8083 8.43644 15.2167 8.43644C15.3917 8.43644 15.5521 8.40728 15.6979 8.34894C15.8438 8.29061 15.9944 8.26144 16.15 8.26144C16.3833 8.26144 16.5778 8.34894 16.7333 8.52394C16.8889 8.69894 16.9667 8.90311 16.9667 9.13644C16.9667 9.58366 16.7576 9.87047 16.3396 9.99686C15.9215 10.1232 15.5472 10.1864 15.2167 10.1864C14.3417 10.1864 13.5882 9.87047 12.9563 9.23853C12.3243 8.60658 12.0083 7.85311 12.0083 6.97811V6.80311C12.0083 6.74478 12.0181 6.667 12.0375 6.56978C10.4236 7.15311 9.11111 8.13505 8.1 9.51561C7.08889 10.8962 6.58333 12.4809 6.58333 14.2698C6.58333 16.5253 7.38056 18.4503 8.975 20.0448C10.5694 21.6392 12.4944 22.4364 14.75 22.4364Z" fill="#5FABC5"/>
</svg>
