<svg width="65" height="64" viewBox="0 0 65 64" fill="none" xmlns="http://www.w3.org/2000/svg">
<path d="M5.83398 34.6667L11.434 18.6667C11.7007 17.8667 12.1784 17.2223 12.8673 16.7334C13.5562 16.2445 14.3229 16 15.1673 16H27.3673C27.234 16.8889 27.1673 17.7778 27.1673 18.6667C27.1673 19.5556 27.234 20.4445 27.3673 21.3334H16.1007L13.3007 29.3334H30.5673C31.3229 30.4 32.1673 31.3889 33.1006 32.3C34.034 33.2111 35.0784 34 36.234 34.6667H11.1673V48H48.5006V37.1334C49.434 37 50.3451 36.8 51.234 36.5334C52.1229 36.2667 52.9895 35.9334 53.834 35.5334V56C53.834 56.7556 53.5784 57.3889 53.0673 57.9C52.5562 58.4111 51.9229 58.6667 51.1673 58.6667H48.5006C47.7451 58.6667 47.1118 58.4111 46.6006 57.9C46.0895 57.3889 45.834 56.7556 45.834 56V53.3334H13.834V56C13.834 56.7556 13.5784 57.3889 13.0673 57.9C12.5562 58.4111 11.9229 58.6667 11.1673 58.6667H8.50065C7.7451 58.6667 7.11176 58.4111 6.60065 57.9C6.08954 57.3889 5.83398 56.7556 5.83398 56V34.6667ZM41.834 45.3334C42.9451 45.3334 43.8895 44.9445 44.6673 44.1667C45.4451 43.3889 45.834 42.4445 45.834 41.3334C45.834 40.2223 45.4451 39.2778 44.6673 38.5C43.8895 37.7223 42.9451 37.3334 41.834 37.3334C40.7229 37.3334 39.7784 37.7223 39.0006 38.5C38.2229 39.2778 37.834 40.2223 37.834 41.3334C37.834 42.4445 38.2229 43.3889 39.0006 44.1667C39.7784 44.9445 40.7229 45.3334 41.834 45.3334ZM17.834 45.3334C18.9451 45.3334 19.8895 44.9445 20.6673 44.1667C21.4451 43.3889 21.834 42.4445 21.834 41.3334C21.834 40.2223 21.4451 39.2778 20.6673 38.5C19.8895 37.7223 18.9451 37.3334 17.834 37.3334C16.7229 37.3334 15.7784 37.7223 15.0007 38.5C14.2229 39.2778 13.834 40.2223 13.834 41.3334C13.834 42.4445 14.2229 43.3889 15.0007 44.1667C15.7784 44.9445 16.7229 45.3334 17.834 45.3334ZM45.834 32C42.1451 32 39.0006 30.7 36.4007 28.1C33.8006 25.5 32.5006 22.3556 32.5006 18.6667C32.5006 15.0223 33.7895 11.8889 36.3673 9.26671C38.9451 6.64449 42.1006 5.33337 45.834 5.33337C49.5229 5.33337 52.6673 6.63337 55.2673 9.23337C57.8673 11.8334 59.1673 14.9778 59.1673 18.6667C59.1673 22.3556 57.8673 25.5 55.2673 28.1C52.6673 30.7 49.5229 32 45.834 32ZM44.5006 21.3334H47.1673V10.6667H44.5006V21.3334ZM45.834 26.6667C46.1895 26.6667 46.5006 26.5334 46.7673 26.2667C47.034 26 47.1673 25.6889 47.1673 25.3334C47.1673 24.9778 47.034 24.6667 46.7673 24.4C46.5006 24.1334 46.1895 24 45.834 24C45.4784 24 45.1673 24.1334 44.9007 24.4C44.634 24.6667 44.5006 24.9778 44.5006 25.3334C44.5006 25.6889 44.634 26 44.9007 26.2667C45.1673 26.5334 45.4784 26.6667 45.834 26.6667Z" fill="#2EB6FF"/>
</svg>
