<svg width="64" height="64" viewBox="0 0 64 64" fill="none" xmlns="http://www.w3.org/2000/svg">
<path d="M32.0009 58.7334C31.2898 58.7334 30.612 58.6001 29.9676 58.3334C29.3231 58.0667 28.7342 57.6889 28.2009 57.2001L6.80091 35.8001C6.31202 35.2667 5.93424 34.6778 5.66758 34.0334C5.40091 33.3889 5.26758 32.7112 5.26758 32.0001C5.26758 31.2889 5.40091 30.6001 5.66758 29.9334C5.93424 29.2667 6.31202 28.6889 6.80091 28.2001L28.2009 6.80006C28.7342 6.26672 29.3231 5.87783 29.9676 5.63339C30.612 5.38895 31.2898 5.26672 32.0009 5.26672C32.712 5.26672 33.4009 5.38895 34.0676 5.63339C34.7342 5.87783 35.312 6.26672 35.8009 6.80006L57.2009 28.2001C57.7342 28.6889 58.1231 29.2667 58.3676 29.9334C58.612 30.6001 58.7342 31.2889 58.7342 32.0001C58.7342 32.7112 58.612 33.3889 58.3676 34.0334C58.1231 34.6778 57.7342 35.2667 57.2009 35.8001L35.8009 57.2001C35.312 57.6889 34.7342 58.0667 34.0676 58.3334C33.4009 58.6001 32.712 58.7334 32.0009 58.7334ZM32.0009 53.4001L53.4009 32.0001L32.0009 10.6001L10.6009 32.0001L32.0009 53.4001ZM29.3342 34.6667H34.6676V18.6667H29.3342V34.6667ZM32.0009 42.6667C32.7565 42.6667 33.3898 42.4112 33.9009 41.9001C34.412 41.3889 34.6676 40.7556 34.6676 40.0001C34.6676 39.2445 34.412 38.6112 33.9009 38.1001C33.3898 37.5889 32.7565 37.3334 32.0009 37.3334C31.2454 37.3334 30.612 37.5889 30.1009 38.1001C29.5898 38.6112 29.3342 39.2445 29.3342 40.0001C29.3342 40.7556 29.5898 41.3889 30.1009 41.9001C30.612 42.4112 31.2454 42.6667 32.0009 42.6667Z" fill="#2EB6FF"/>
</svg>
