<svg width="64" height="64" viewBox="0 0 64 64" fill="none" xmlns="http://www.w3.org/2000/svg">
<path d="M2.53333 35.4667C1.73333 33.8667 1.11111 32.2444 0.666667 30.6C0.222222 28.9556 0 27.2889 0 25.6C0 20.6222 1.68889 16.4444 5.06667 13.0667C8.44444 9.68889 12.6222 8 17.6 8C20.4 8 23.0667 8.58889 25.6 9.76667C28.1333 10.9444 30.2667 12.5778 32 14.6667C33.7333 12.5778 35.8667 10.9444 38.4 9.76667C40.9333 8.58889 43.6 8 46.4 8C51.3778 8 55.5556 9.68889 58.9333 13.0667C62.3111 16.4444 64 20.6222 64 25.6C64 27.2889 63.7778 28.9556 63.3333 30.6C62.8889 32.2444 62.2667 33.8667 61.4667 35.4667C60.9778 34.6222 60.4 33.8667 59.7333 33.2C59.0667 32.5333 58.2889 32 57.4 31.6C57.8 30.5778 58.1111 29.5778 58.3333 28.6C58.5556 27.6222 58.6667 26.6222 58.6667 25.6C58.6667 22.1333 57.4889 19.2222 55.1333 16.8667C52.7778 14.5111 49.8667 13.3333 46.4 13.3333C42.8 13.3333 40.0333 14.3222 38.1 16.3C36.1667 18.2778 34.1333 20.4889 32 22.9333C29.8667 20.4444 27.8333 18.2222 25.9 16.2667C23.9667 14.3111 21.2 13.3333 17.6 13.3333C14.1333 13.3333 11.2222 14.5111 8.86667 16.8667C6.51111 19.2222 5.33333 22.1333 5.33333 25.6C5.33333 26.6222 5.44444 27.6222 5.66667 28.6C5.88889 29.5778 6.2 30.5778 6.6 31.6C5.71111 32 4.93333 32.5333 4.26667 33.2C3.6 33.8667 3.02222 34.6222 2.53333 35.4667ZM0 58.6667V54.4667C0 52.5111 0.988889 50.9444 2.96667 49.7667C4.94444 48.5889 7.51111 48 10.6667 48C11.2444 48 11.8 48.0111 12.3333 48.0333C12.8667 48.0556 13.3778 48.1111 13.8667 48.2C13.2444 49.0889 12.7778 50.0444 12.4667 51.0667C12.1556 52.0889 12 53.1778 12 54.3333V58.6667H0ZM16 58.6667V54.3333C16 51.4444 17.4778 49.1111 20.4333 47.3333C23.3889 45.5556 27.2444 44.6667 32 44.6667C36.8 44.6667 40.6667 45.5556 43.6 47.3333C46.5333 49.1111 48 51.4444 48 54.3333V58.6667H16ZM52 58.6667V54.3333C52 53.1778 51.8556 52.0889 51.5667 51.0667C51.2778 50.0444 50.8444 49.0889 50.2667 48.2C50.7556 48.1111 51.2556 48.0556 51.7667 48.0333C52.2778 48.0111 52.8 48 53.3333 48C56.5333 48 59.1111 48.5889 61.0667 49.7667C63.0222 50.9444 64 52.5111 64 54.4667V58.6667H52ZM32 50C29.4667 50 27.2 50.3333 25.2 51C23.2 51.6667 22.0222 52.4444 21.6667 53.3333H42.4C42 52.4444 40.8111 51.6667 38.8333 51C36.8556 50.3333 34.5778 50 32 50ZM10.6667 45.3333C9.2 45.3333 7.94444 44.8111 6.9 43.7667C5.85556 42.7222 5.33333 41.4667 5.33333 40C5.33333 38.4889 5.85556 37.2222 6.9 36.2C7.94444 35.1778 9.2 34.6667 10.6667 34.6667C12.1778 34.6667 13.4444 35.1778 14.4667 36.2C15.4889 37.2222 16 38.4889 16 40C16 41.4667 15.4889 42.7222 14.4667 43.7667C13.4444 44.8111 12.1778 45.3333 10.6667 45.3333ZM53.3333 45.3333C51.8667 45.3333 50.6111 44.8111 49.5667 43.7667C48.5222 42.7222 48 41.4667 48 40C48 38.4889 48.5222 37.2222 49.5667 36.2C50.6111 35.1778 51.8667 34.6667 53.3333 34.6667C54.8444 34.6667 56.1111 35.1778 57.1333 36.2C58.1556 37.2222 58.6667 38.4889 58.6667 40C58.6667 41.4667 58.1556 42.7222 57.1333 43.7667C56.1111 44.8111 54.8444 45.3333 53.3333 45.3333ZM32 42.6667C29.7778 42.6667 27.8889 41.8889 26.3333 40.3333C24.7778 38.7778 24 36.8889 24 34.6667C24 32.4 24.7778 30.5 26.3333 28.9667C27.8889 27.4333 29.7778 26.6667 32 26.6667C34.2667 26.6667 36.1667 27.4333 37.7 28.9667C39.2333 30.5 40 32.4 40 34.6667C40 36.8889 39.2333 38.7778 37.7 40.3333C36.1667 41.8889 34.2667 42.6667 32 42.6667ZM32 32C31.2444 32 30.6111 32.2556 30.1 32.7667C29.5889 33.2778 29.3333 33.9111 29.3333 34.6667C29.3333 35.4222 29.5889 36.0556 30.1 36.5667C30.6111 37.0778 31.2444 37.3333 32 37.3333C32.7556 37.3333 33.3889 37.0778 33.9 36.5667C34.4111 36.0556 34.6667 35.4222 34.6667 34.6667C34.6667 33.9111 34.4111 33.2778 33.9 32.7667C33.3889 32.2556 32.7556 32 32 32Z" fill="#2EB6FF"/>
</svg>
