<svg width="65" height="64" viewBox="0 0 65 64" fill="none" xmlns="http://www.w3.org/2000/svg">
<path d="M11.1673 58.6667C9.70065 58.6667 8.4451 58.1445 7.40065 57.1C6.35621 56.0556 5.83398 54.8 5.83398 53.3334V21.3334C5.83398 19.8667 6.35621 18.6112 7.40065 17.5667C8.4451 16.5223 9.70065 16 11.1673 16H21.834V10.6667C21.834 9.20004 22.3562 7.94448 23.4007 6.90004C24.4451 5.8556 25.7006 5.33337 27.1673 5.33337H37.834C39.3006 5.33337 40.5562 5.8556 41.6007 6.90004C42.6451 7.94448 43.1673 9.20004 43.1673 10.6667V16H53.834C55.3006 16 56.5562 16.5223 57.6006 17.5667C58.6451 18.6112 59.1673 19.8667 59.1673 21.3334V53.3334C59.1673 54.8 58.6451 56.0556 57.6006 57.1C56.5562 58.1445 55.3006 58.6667 53.834 58.6667H11.1673ZM11.1673 53.3334H53.834V21.3334H11.1673V53.3334ZM27.1673 16H37.834V10.6667H27.1673V16ZM29.834 40V48H35.1673V40H43.1673V34.6667H35.1673V26.6667H29.834V34.6667H21.834V40H29.834Z" fill="#2EB6FF"/>
</svg>
