<svg width="64" height="64" viewBox="0 0 64 64" fill="none" xmlns="http://www.w3.org/2000/svg">
<path d="M10.6673 58.6666C9.20065 58.6666 7.9451 58.1444 6.90065 57.0999C5.85621 56.0555 5.33398 54.7999 5.33398 53.3332V10.6666C5.33398 9.19992 5.85621 7.94436 6.90065 6.89992C7.9451 5.85547 9.20065 5.33325 10.6673 5.33325H34.6673C36.134 5.33325 37.3895 5.85547 38.434 6.89992C39.4784 7.94436 40.0007 9.19992 40.0007 10.6666V53.3332C40.0007 54.7999 39.4784 56.0555 38.434 57.0999C37.3895 58.1444 36.134 58.6666 34.6673 58.6666H10.6673ZM10.6673 28.0666C11.4673 27.5777 12.3118 27.2221 13.2007 26.9999C14.0895 26.7777 15.0229 26.6666 16.0007 26.6666H29.334C30.3118 26.6666 31.2451 26.7777 32.134 26.9999C33.0229 27.2221 33.8673 27.5777 34.6673 28.0666V10.6666H10.6673V28.0666ZM22.6673 23.9999C21.2007 23.9999 19.9451 23.4777 18.9007 22.4333C17.8562 21.3888 17.334 20.1333 17.334 18.6666C17.334 17.1999 17.8562 15.9444 18.9007 14.8999C19.9451 13.8555 21.2007 13.3333 22.6673 13.3333C24.134 13.3333 25.3895 13.8555 26.434 14.8999C27.4784 15.9444 28.0007 17.1999 28.0007 18.6666C28.0007 20.1333 27.4784 21.3888 26.434 22.4333C25.3895 23.4777 24.134 23.9999 22.6673 23.9999ZM52.0007 41.3332L42.6673 31.9999L52.0007 22.6666L55.734 26.3999L52.8673 29.3333H61.334V34.6666H52.8673L55.734 37.5999L52.0007 41.3332ZM10.6673 53.3332H34.6673V37.3333C34.6673 35.8666 34.1451 34.611 33.1007 33.5666C32.0562 32.5221 30.8007 31.9999 29.334 31.9999H16.0007C14.534 31.9999 13.2784 32.5221 12.234 33.5666C11.1895 34.611 10.6673 35.8666 10.6673 37.3333V53.3332ZM20.0007 50.6666H25.334V45.3332H30.6673V39.9999H25.334V34.6666H20.0007V39.9999H14.6673V45.3332H20.0007V50.6666Z" fill="#2EB6FF"/>
</svg>
