<svg width="64" height="64" viewBox="0 0 64 64" fill="none" xmlns="http://www.w3.org/2000/svg">
<path d="M31.9993 32.0001C29.066 32.0001 26.5549 30.9556 24.466 28.8667C22.3771 26.7779 21.3327 24.2667 21.3327 21.3334C21.3327 18.4001 22.3771 15.889 24.466 13.8001C26.5549 11.7112 29.066 10.6667 31.9993 10.6667C34.9327 10.6667 37.4438 11.7112 39.5327 13.8001C41.6216 15.889 42.666 18.4001 42.666 21.3334C42.666 24.2667 41.6216 26.7779 39.5327 28.8667C37.4438 30.9556 34.9327 32.0001 31.9993 32.0001ZM10.666 53.3334V45.8667C10.666 44.3556 11.0549 42.9668 11.8327 41.7001C12.6105 40.4334 13.6438 39.4667 14.9327 38.8001C17.6882 37.4223 20.4882 36.389 23.3327 35.7001C26.1771 35.0112 29.066 34.6667 31.9993 34.6667C34.9327 34.6667 37.8216 35.0112 40.666 35.7001C43.5105 36.389 46.3105 37.4223 49.066 38.8001C50.3549 39.4667 51.3882 40.4334 52.166 41.7001C52.9438 42.9668 53.3327 44.3556 53.3327 45.8667V53.3334H10.666ZM15.9993 48.0001H47.9994V45.8667C47.9994 45.3779 47.8771 44.9334 47.6327 44.5334C47.3882 44.1334 47.066 43.8223 46.666 43.6001C44.266 42.4001 41.8438 41.5001 39.3994 40.9001C36.9549 40.3001 34.4882 40.0001 31.9993 40.0001C29.5105 40.0001 27.0438 40.3001 24.5993 40.9001C22.1549 41.5001 19.7327 42.4001 17.3327 43.6001C16.9327 43.8223 16.6105 44.1334 16.366 44.5334C16.1216 44.9334 15.9993 45.3779 15.9993 45.8667V48.0001ZM31.9993 26.6667C33.466 26.6667 34.7216 26.1445 35.766 25.1001C36.8105 24.0556 37.3327 22.8001 37.3327 21.3334C37.3327 19.8667 36.8105 18.6112 35.766 17.5667C34.7216 16.5223 33.466 16.0001 31.9993 16.0001C30.5327 16.0001 29.2771 16.5223 28.2327 17.5667C27.1882 18.6112 26.666 19.8667 26.666 21.3334C26.666 22.8001 27.1882 24.0556 28.2327 25.1001C29.2771 26.1445 30.5327 26.6667 31.9993 26.6667Z" fill="#2EB6FF"/>
</svg>
