<svg width="13" height="12" viewBox="0 0 13 12" fill="none" xmlns="http://www.w3.org/2000/svg">
<g clip-path="url(#clip0_778_2159)">
<path d="M11.5898 5H7.08984V0.5C7.08984 0.25 6.83984 0 6.58984 0H5.58984C5.30859 0 5.08984 0.25 5.08984 0.5V5H0.589844C0.308594 5 0.0898438 5.25 0.0898438 5.5V6.5C0.0898438 6.78125 0.308594 7 0.589844 7H5.08984V11.5C5.08984 11.7812 5.30859 12 5.58984 12H6.58984C6.83984 12 7.08984 11.7812 7.08984 11.5V7H11.5898C11.8398 7 12.0898 6.78125 12.0898 6.5V5.5C12.0898 5.25 11.8398 5 11.5898 5Z" fill="#22272B" fill-opacity="0.6"/>
</g>
<defs>
<clipPath id="clip0_778_2159">
<rect width="12" height="12" fill="white" transform="translate(0.0898438)"/>
</clipPath>
</defs>
</svg>
