<svg width="64" height="64" viewBox="0 0 64 64" fill="none" xmlns="http://www.w3.org/2000/svg">
<path d="M46.2673 56L36.8007 46.5334L40.6007 42.8L46.2673 48.4667L57.6007 37.1334L61.334 40.9334L46.2673 56ZM36.0007 58.6667C31.2007 58.6667 27.1118 56.9778 23.734 53.6C20.3562 50.2223 18.6673 46.1334 18.6673 41.3334V39.8C14.8451 39.1778 11.6673 37.3889 9.13398 34.4334C6.60065 31.4778 5.33398 28 5.33398 24V8.00004H13.334V5.33337H18.6673V16H13.334V13.3334H10.6673V24C10.6673 26.9334 11.7118 29.4445 13.8007 31.5334C15.8895 33.6223 18.4007 34.6667 21.334 34.6667C24.2673 34.6667 26.7784 33.6223 28.8673 31.5334C30.9562 29.4445 32.0007 26.9334 32.0007 24V13.3334H29.334V16H24.0007V5.33337H29.334V8.00004H37.334V24C37.334 28 36.0673 31.4778 33.534 34.4334C31.0007 37.3889 27.8229 39.1778 24.0007 39.8V41.3334C24.0007 44.6667 25.1673 47.5 27.5007 49.8334C29.834 52.1667 32.6673 53.3334 36.0007 53.3334V58.6667Z" fill="#2EB6FF"/>
</svg>
