<svg width="65" height="64" viewBox="0 0 65 64" fill="none" xmlns="http://www.w3.org/2000/svg">
<path d="M21.834 59.9999L16.5007 55.9999V45.3333H13.834C12.3673 45.3333 11.1118 44.811 10.0673 43.7666C9.02287 42.7221 8.50065 41.4666 8.50065 39.9999V19.9999C7.7451 19.9999 7.11176 19.7444 6.60065 19.2333C6.08954 18.7221 5.83398 18.0888 5.83398 17.3333C5.83398 16.5777 6.08954 15.9444 6.60065 15.4333C7.11176 14.9221 7.7451 14.6666 8.50065 14.6666H16.5007V10.6666H15.1673C14.4118 10.6666 13.7784 10.411 13.2673 9.89992C12.7562 9.38881 12.5007 8.75547 12.5007 7.99992C12.5007 7.24436 12.7562 6.61103 13.2673 6.09992C13.7784 5.58881 14.4118 5.33325 15.1673 5.33325H23.1673C23.9229 5.33325 24.5562 5.58881 25.0673 6.09992C25.5784 6.61103 25.834 7.24436 25.834 7.99992C25.834 8.75547 25.5784 9.38881 25.0673 9.89992C24.5562 10.411 23.9229 10.6666 23.1673 10.6666H21.834V14.6666H29.834C30.5895 14.6666 31.2229 14.9221 31.734 15.4333C32.2451 15.9444 32.5006 16.5777 32.5006 17.3333C32.5006 18.0888 32.2451 18.7221 31.734 19.2333C31.2229 19.7444 30.5895 19.9999 29.834 19.9999V39.9999C29.834 41.4666 29.3118 42.7221 28.2673 43.7666C27.2229 44.811 25.9673 45.3333 24.5007 45.3333H21.834V59.9999ZM13.834 39.9999H24.5007V35.9999H19.834C19.3007 35.9999 18.834 35.7999 18.434 35.3999C18.034 34.9999 17.834 34.5333 17.834 33.9999C17.834 33.4666 18.034 32.9999 18.434 32.5999C18.834 32.1999 19.3007 31.9999 19.834 31.9999H24.5007V27.9999H19.834C19.3007 27.9999 18.834 27.7999 18.434 27.3999C18.034 26.9999 17.834 26.5333 17.834 25.9999C17.834 25.4666 18.034 24.9999 18.434 24.5999C18.834 24.1999 19.3007 23.9999 19.834 23.9999H24.5007V19.9999H13.834V39.9999ZM40.5006 58.6666C39.034 58.6666 37.7784 58.1444 36.734 57.0999C35.6895 56.0555 35.1673 54.7999 35.1673 53.3333V35.9999C35.1673 34.711 35.3895 33.6444 35.834 32.7999C36.2784 31.9555 36.7451 31.2221 37.234 30.5999C37.7229 29.9777 38.1673 29.4777 38.5673 29.0999C38.9673 28.7221 39.1673 28.3555 39.1673 27.9999V26.6666C38.4118 26.6666 37.7784 26.411 37.2673 25.8999C36.7562 25.3888 36.5006 24.7555 36.5006 23.9999C36.5006 23.2444 36.7562 22.611 37.2673 22.0999C37.7784 21.5888 38.4118 21.3333 39.1673 21.3333H52.5006C53.2562 21.3333 53.8895 21.5888 54.4007 22.0999C54.9118 22.611 55.1673 23.2444 55.1673 23.9999C55.1673 24.7555 54.9118 25.3888 54.4007 25.8999C53.8895 26.411 53.2562 26.6666 52.5006 26.6666V27.9999C52.5006 28.3555 52.7229 28.7555 53.1673 29.1999C53.6118 29.6444 54.1006 30.1777 54.634 30.7999C55.1229 31.4221 55.5562 32.1555 55.934 32.9999C56.3118 33.8444 56.5006 34.8444 56.5006 35.9999V53.3333C56.5006 54.7999 55.9784 56.0555 54.934 57.0999C53.8895 58.1444 52.634 58.6666 51.1673 58.6666H40.5006ZM40.5006 37.3333H51.1673V35.9999C51.1673 35.3333 50.9673 34.7555 50.5673 34.2666C50.1673 33.7777 49.7229 33.2444 49.234 32.6666C48.7451 32.0888 48.2784 31.4444 47.834 30.7333C47.3895 30.0221 47.1673 29.111 47.1673 27.9999V26.6666H44.5006V27.9999C44.5006 29.0666 44.2895 29.9555 43.8673 30.6666C43.4451 31.3777 42.9895 32.0221 42.5006 32.5999C42.0118 33.1777 41.5562 33.7221 41.134 34.2333C40.7118 34.7444 40.5006 35.3333 40.5006 35.9999V37.3333ZM40.5006 45.3333H51.1673V41.3333H40.5006V45.3333ZM40.5006 53.3333H51.1673V49.3333H40.5006V53.3333Z" fill="#2EB6FF"/>
</svg>
