<svg width="32" height="32" viewBox="0 0 32 32" fill="none" xmlns="http://www.w3.org/2000/svg">
<path d="M9.67148 24.6593L10.6378 25.2227C12.2521 26.1641 14.0868 26.6667 16.0013 26.6667C21.8924 26.6667 26.668 21.8911 26.668 16.0001C26.668 10.109 21.8924 5.33341 16.0013 5.33341C10.1103 5.33341 5.33464 10.109 5.33464 16.0001C5.33464 17.9151 5.83761 19.7505 6.77954 21.3651L7.34272 22.3305L6.4714 25.5326L9.67148 24.6593ZM2.67354 29.3334L4.47616 22.7087C3.32658 20.7382 2.66797 18.4461 2.66797 16.0001C2.66797 8.63628 8.6375 2.66675 16.0013 2.66675C23.3651 2.66675 29.3347 8.63628 29.3347 16.0001C29.3347 23.3638 23.3651 29.3334 16.0013 29.3334C13.5561 29.3334 11.2647 28.6753 9.29448 27.5263L2.67354 29.3334ZM11.1898 9.74452C11.3683 9.73197 11.5474 9.73005 11.7261 9.73877C11.7983 9.74352 11.8702 9.75187 11.9421 9.76017C12.1545 9.78469 12.388 9.91401 12.4665 10.092C12.8642 10.9939 13.2502 11.9009 13.6243 12.8129C13.7068 13.0142 13.6571 13.2752 13.5 13.5277C13.4203 13.6571 13.295 13.8387 13.15 14.0245C12.9992 14.2174 12.6746 14.5722 12.6746 14.5722C12.6746 14.5722 12.5432 14.7298 12.5927 14.9259C12.612 15.0001 12.6736 15.1081 12.7294 15.1989C12.7604 15.2491 12.7891 15.2941 12.8077 15.3251C13.1489 15.8949 13.6076 16.4725 14.1679 17.0155C14.3284 17.1711 14.4841 17.3299 14.6516 17.4774C15.276 18.0279 15.9824 18.4778 16.7453 18.811L16.7521 18.8141C16.8648 18.8626 16.9227 18.8891 17.0876 18.9591C17.1708 18.9943 17.2559 19.0247 17.3432 19.0478C17.3748 19.0561 17.4072 19.0607 17.4397 19.063C17.6553 19.0759 17.78 18.9377 17.8332 18.8741C18.7979 17.7054 18.8861 17.6291 18.8928 17.6297V17.6318C19.0196 17.4982 19.2189 17.4518 19.3968 17.4627C19.478 17.4677 19.5588 17.4833 19.6327 17.517C20.3417 17.8405 21.5011 18.345 21.5011 18.345L22.2764 18.6935C22.4063 18.7562 22.5248 18.9038 22.5305 19.0473C22.534 19.1365 22.5436 19.2805 22.5117 19.5439C22.47 19.8889 22.3651 20.3042 22.2608 20.5218C22.1875 20.6745 22.0925 20.8099 21.9821 20.9246C21.8324 21.0801 21.7212 21.1745 21.5412 21.3086C21.4316 21.3902 21.3748 21.4286 21.3748 21.4286C21.1896 21.5454 21.0852 21.6038 20.8645 21.7213C20.5213 21.9041 20.1421 22.0091 19.7537 22.0291C19.5061 22.0418 19.2592 22.0597 19.0119 22.0463C19.0009 22.0457 18.2543 21.931 18.2543 21.931C16.3584 21.4323 14.6051 20.4982 13.1338 19.2027C12.833 18.9379 12.554 18.6514 12.2692 18.3679C11.0838 17.1878 10.1864 15.9153 9.64225 14.7115C9.3739 14.1179 9.20398 13.4822 9.2013 12.8281C9.19638 12.0188 9.46132 11.231 9.95425 10.5892C10.0514 10.4627 10.1436 10.3315 10.3028 10.1812C10.4713 10.0221 10.5786 9.93667 10.6941 9.87756C10.8481 9.79877 11.0172 9.75664 11.1898 9.74452Z" fill="black"/>
</svg>
