<svg width="46" height="54" viewBox="0 0 46 54" fill="none" xmlns="http://www.w3.org/2000/svg">
<path opacity="0.9" d="M34.6025 37.1475L35.0425 37.59L35.4863 37.1475C37.683 34.9508 41.2445 34.9508 43.4413 37.1475C45.638 39.3442 45.638 42.9058 43.4413 45.1025L35.0445 53.4992L26.6475 45.1025C24.4508 42.9058 24.4508 39.3442 26.6475 37.1475C28.8443 34.9508 32.4058 34.9508 34.6025 37.1475ZM20 33V38C11.7157 38 5 44.7158 5 53H0C0 42.1628 8.6196 33.3388 19.377 33.0095L20 33ZM20 0.5C28.2875 0.5 35 7.2125 35 15.5C35 23.5993 28.5893 30.194 20.5625 30.4897L20 30.5C11.7125 30.5 5 23.7875 5 15.5C5 7.40085 11.4109 0.805925 19.4375 0.51035L20 0.5ZM20 5.5C14.4739 5.5 10 9.97393 10 15.5C10 21.0261 14.4739 25.5 20 25.5C25.526 25.5 30 21.0261 30 15.5C30 9.97393 25.526 5.5 20 5.5Z" fill="white"/>
</svg>
