<svg width="50" height="45" viewBox="0 0 50 45" fill="none" xmlns="http://www.w3.org/2000/svg">
<path opacity="0.9" d="M42.5 40H7.5V42.5C7.5 43.8807 6.3807 45 5 45H2.5C1.1193 45 0 43.8807 0 42.5V17.5L6.20125 3.0304C6.98915 1.19198 8.79685 0 10.797 0H39.203C41.2033 0 43.0108 1.19198 43.7988 3.0304L50 17.5V42.5C50 43.8807 48.8808 45 47.5 45H45C43.6193 45 42.5 43.8807 42.5 42.5V40ZM45 22.5H5V35H45V22.5ZM5.43985 17.5H44.5603L39.203 5H10.797L5.43985 17.5ZM11.25 32.5C9.17893 32.5 7.5 30.821 7.5 28.75C7.5 26.679 9.17893 25 11.25 25C13.3211 25 15 26.679 15 28.75C15 30.821 13.3211 32.5 11.25 32.5ZM38.75 32.5C36.679 32.5 35 30.821 35 28.75C35 26.679 36.679 25 38.75 25C40.821 25 42.5 26.679 42.5 28.75C42.5 30.821 40.821 32.5 38.75 32.5Z" fill="white"/>
</svg>
